<svg width="900" height="760" viewBox="0 0 900 760" fill="none" xmlns="http://www.w3.org/2000/svg">
  <rect width="900" height="760" rx="40" fill="#F7F1E7"/>
  <rect x="44" y="44" width="812" height="672" rx="28" fill="url(#paint0_linear)"/>
  <circle cx="706" cy="176" r="132" fill="url(#paint1_radial)" fill-opacity="0.8"/>
  <circle cx="706" cy="176" r="110.5" stroke="#155F6F" stroke-opacity="0.22"/>
  <circle cx="706" cy="176" r="74.5" stroke="#155F6F" stroke-opacity="0.34"/>
  <path d="M120 550C182 480 260 448 354 454C486 462 510 578 632 584C702 588 758 560 802 506" stroke="#155F6F" stroke-width="3" stroke-linecap="round"/>
  <path d="M124 414C194 352 278 322 374 326C494 332 560 422 662 422C728 422 776 402 812 376" stroke="#155F6F" stroke-opacity="0.38" stroke-width="2.5" stroke-linecap="round"/>
  <path d="M126 264C184 218 250 194 324 194C422 194 490 248 584 248C670 248 738 216 792 156" stroke="#155F6F" stroke-opacity="0.24" stroke-width="2" stroke-linecap="round"/>
  <g filter="url(#filter0_d)">
    <rect x="118" y="522" width="190" height="88" rx="22" fill="#FFFCF7"/>
    <circle cx="152" cy="566" r="8" fill="#155F6F"/>
    <rect x="176" y="550" width="94" height="9" rx="4.5" fill="#155F6F" fill-opacity="0.22"/>
    <rect x="176" y="569" width="70" height="8" rx="4" fill="#155F6F" fill-opacity="0.12"/>
  </g>
  <g filter="url(#filter1_d)">
    <rect x="334" y="294" width="218" height="106" rx="24" fill="#FFFCF7"/>
    <rect x="368" y="330" width="68" height="10" rx="5" fill="#155F6F" fill-opacity="0.18"/>
    <rect x="368" y="350" width="150" height="10" rx="5" fill="#155F6F" fill-opacity="0.1"/>
    <path d="M472 281L472 243" stroke="#155F6F" stroke-width="2" stroke-linecap="round"/>
    <circle cx="472" cy="225" r="18" fill="#F2E0C9"/>
    <circle cx="472" cy="225" r="7" fill="#91581D"/>
  </g>
  <g filter="url(#filter2_d)">
    <rect x="612" y="478" width="176" height="94" rx="24" fill="#FFFCF7"/>
    <rect x="646" y="514" width="92" height="10" rx="5" fill="#155F6F" fill-opacity="0.2"/>
    <rect x="646" y="534" width="70" height="8" rx="4" fill="#155F6F" fill-opacity="0.1"/>
    <path d="M694 467L694 436" stroke="#155F6F" stroke-width="2" stroke-linecap="round"/>
    <circle cx="694" cy="420" r="16" fill="#D7E9E5"/>
    <path d="M687 420L692 425L701 414" stroke="#155F6F" stroke-width="2.5" stroke-linecap="round" stroke-linejoin="round"/>
  </g>
  <g opacity="0.44">
    <line x1="120" y1="132.5" x2="780" y2="132.5" stroke="#155F6F" stroke-opacity="0.16"/>
    <line x1="120" y1="649.5" x2="780" y2="649.5" stroke="#155F6F" stroke-opacity="0.16"/>
    <line x1="120.5" y1="132" x2="120.5" y2="650" stroke="#155F6F" stroke-opacity="0.16"/>
    <line x1="779.5" y1="132" x2="779.5" y2="650" stroke="#155F6F" stroke-opacity="0.16"/>
  </g>
  <defs>
    <filter id="filter0_d" x="86" y="498" width="254" height="152" filterUnits="userSpaceOnUse" color-interpolation-filters="sRGB">
      <feFlood flood-opacity="0" result="BackgroundImageFix"/>
      <feColorMatrix in="SourceAlpha" type="matrix" values="0 0 0 0 0 0 0 0 0 0 0 0 0 0 0 0 0 0 127 0" result="hardAlpha"/>
      <feOffset dy="8"/>
      <feGaussianBlur stdDeviation="16"/>
      <feColorMatrix type="matrix" values="0 0 0 0 0.0901961 0 0 0 0 0.0823529 0 0 0 0 0.0745098 0 0 0 0.08 0"/>
      <feBlend mode="normal" in2="BackgroundImageFix" result="effect1_dropShadow"/>
      <feBlend mode="normal" in="SourceGraphic" in2="effect1_dropShadow" result="shape"/>
    </filter>
    <filter id="filter1_d" x="302" y="183" width="282" height="257" filterUnits="userSpaceOnUse" color-interpolation-filters="sRGB">
      <feFlood flood-opacity="0" result="BackgroundImageFix"/>
      <feColorMatrix in="SourceAlpha" type="matrix" values="0 0 0 0 0 0 0 0 0 0 0 0 0 0 0 0 0 0 127 0" result="hardAlpha"/>
      <feOffset dy="8"/>
      <feGaussianBlur stdDeviation="16"/>
      <feColorMatrix type="matrix" values="0 0 0 0 0.0901961 0 0 0 0 0.0823529 0 0 0 0 0.0745098 0 0 0 0.08 0"/>
      <feBlend mode="normal" in2="BackgroundImageFix" result="effect1_dropShadow"/>
      <feBlend mode="normal" in="SourceGraphic" in2="effect1_dropShadow" result="shape"/>
    </filter>
    <filter id="filter2_d" x="580" y="396" width="240" height="216" filterUnits="userSpaceOnUse" color-interpolation-filters="sRGB">
      <feFlood flood-opacity="0" result="BackgroundImageFix"/>
      <feColorMatrix in="SourceAlpha" type="matrix" values="0 0 0 0 0 0 0 0 0 0 0 0 0 0 0 0 0 0 127 0" result="hardAlpha"/>
      <feOffset dy="8"/>
      <feGaussianBlur stdDeviation="16"/>
      <feColorMatrix type="matrix" values="0 0 0 0 0.0901961 0 0 0 0 0.0823529 0 0 0 0 0.0745098 0 0 0 0.08 0"/>
      <feBlend mode="normal" in2="BackgroundImageFix" result="effect1_dropShadow"/>
      <feBlend mode="normal" in="SourceGraphic" in2="effect1_dropShadow" result="shape"/>
    </filter>
    <linearGradient id="paint0_linear" x1="450" y1="44" x2="450" y2="716" gradientUnits="userSpaceOnUse">
      <stop stop-color="#FFFDF9"/>
      <stop offset="1" stop-color="#F4EBDD"/>
    </linearGradient>
    <radialGradient id="paint1_radial" cx="0" cy="0" r="1" gradientUnits="userSpaceOnUse" gradientTransform="translate(706 176) rotate(90) scale(132)">
      <stop stop-color="#DCEBE7"/>
      <stop offset="1" stop-color="#DCEBE7" stop-opacity="0"/>
    </radialGradient>
  </defs>
</svg>
